<?xml version="1.0" encoding="UTF-8" standalone="no"?>
<!-- Created with Inkscape (http://www.inkscape.org/) -->

<svg
   width="1280"
   height="640"
   viewBox="0 0 338.66666 169.33333"
   version="1.1"
   id="svg1"
   xml:space="preserve"
   inkscape:version="1.3.2 (091e20ef0f, 2023-11-25, custom)"
   sodipodi:docname="mg.svg"
   xmlns:inkscape="http://www.inkscape.org/namespaces/inkscape"
   xmlns:sodipodi="http://sodipodi.sourceforge.net/DTD/sodipodi-0.dtd"
   xmlns="http://www.w3.org/2000/svg"
   xmlns:svg="http://www.w3.org/2000/svg"><sodipodi:namedview
     id="namedview1"
     pagecolor="#505050"
     bordercolor="#eeeeee"
     borderopacity="1"
     inkscape:showpageshadow="0"
     inkscape:pageopacity="0"
     inkscape:pagecheckerboard="0"
     inkscape:deskcolor="#505050"
     inkscape:document-units="mm"
     inkscape:zoom="0.68917659"
     inkscape:cx="544.8531"
     inkscape:cy="142.19868"
     inkscape:window-width="1524"
     inkscape:window-height="1390"
     inkscape:window-x="10"
     inkscape:window-y="10"
     inkscape:window-maximized="1"
     inkscape:current-layer="layer1" /><defs
     id="defs1"><style
       id="style1">
      .cls-1 {
        fill-rule: evenodd;
      }
    </style></defs><g
     inkscape:label="Layer 1"
     inkscape:groupmode="layer"
     id="layer1"><g
       id="g1"><rect
         style="fill:#000000;stroke-width:0.414051;paint-order:stroke fill markers"
         id="rect1"
         width="1"
         height="169.33299"
         x="20.077999"
         y="3.5527137e-15" /><rect
         style="fill:#000000;stroke-width:0.585558;paint-order:stroke fill markers"
         id="rect1-2"
         width="1"
         height="338.66666"
         x="-149.08028"
         y="-338.66666"
         transform="matrix(0,-1,-1,0,0,0)" /></g><g
       id="g2"
       transform="rotate(180,169.33333,84.666496)"><rect
         style="fill:#000000;stroke-width:0.414051;paint-order:stroke fill markers"
         id="rect1-9"
         width="1"
         height="169.33299"
         x="20.077999"
         y="3.5527137e-15" /><rect
         style="fill:#000000;stroke-width:0.585558;paint-order:stroke fill markers"
         id="rect1-2-7"
         width="1"
         height="338.66666"
         x="-149.08028"
         y="-338.66666"
         transform="matrix(0,-1,-1,0,0,0)" /></g><g
       style="fill:#000000"
       id="g3"
       transform="matrix(0.029777,0,0,0.029777,189.89497,74.557536)"><path
         fill-rule="evenodd"
         clip-rule="evenodd"
         d="M 8,0 C 3.58,0 0,3.58 0,8 c 0,3.54 2.29,6.53 5.47,7.59 0.4,0.07 0.55,-0.17 0.55,-0.38 0,-0.19 -0.01,-0.82 -0.01,-1.49 C 4,14.09 3.48,13.23 3.32,12.78 3.23,12.55 2.84,11.84 2.5,11.65 2.22,11.5 1.82,11.13 2.49,11.12 3.12,11.11 3.57,11.7 3.72,11.94 4.44,13.15 5.59,12.81 6.05,12.6 6.12,12.08 6.33,11.73 6.56,11.53 4.78,11.33 2.92,10.64 2.92,7.58 2.92,6.71 3.23,5.99 3.74,5.43 3.66,5.23 3.38,4.41 3.82,3.31 c 0,0 0.67,-0.21 2.2,0.82 0.64,-0.18 1.32,-0.27 2,-0.27 0.68,0 1.36,0.09 2,0.27 1.53,-1.04 2.2,-0.82 2.2,-0.82 0.44,1.1 0.16,1.92 0.08,2.12 0.51,0.56 0.82,1.27 0.82,2.15 0,3.07 -1.87,3.75 -3.65,3.95 0.29,0.25 0.54,0.73 0.54,1.48 0,1.07 -0.01,1.93 -0.01,2.2 0,0.21 0.15,0.46 0.55,0.38 C 13.71,14.53 16,11.53 16,8 16,3.58 12.42,0 8,0 Z"
         transform="scale(64)"
         fill="#1b1f23"
         id="path1"
         style="fill:#000000" /></g><g
       id="g4"
       transform="matrix(0.06938566,0,0,0.06938566,126.71205,74.856259)"
       style="fill:#000000"><path
         id="Многоугольник_3"
         data-name="Многоугольник 3"
         class="cls-1"
         d="M 370,250 250,370 130,250 V 370 L 40,460 V 40 L 250,250 460,40 v 420 l -90,-90 z"
         transform="translate(-40,-40)"
         style="display:inline;fill:#000000" /></g><g
       id="g5"
       inkscape:label="X"
       transform="translate(0.21639064,43.070251)"><rect
         style="fill:#000000;stroke-width:0.264999;paint-order:stroke fill markers"
         id="rect4"
         width="1"
         height="16"
         x="154.36707"
         y="-97.308372"
         transform="rotate(45)" /><rect
         style="fill:#000000;stroke-width:0.264999;paint-order:stroke fill markers"
         id="rect4-0"
         width="1"
         height="16"
         x="-89.808372"
         y="-162.86707"
         transform="rotate(135)" /></g></g></svg>
